<svg xmlns="http://www.w3.org/2000/svg" width="23.938" height="24" viewBox="0 0 23.938 24">
  <metadata><?xpacket begin="﻿" id="W5M0MpCehiHzreSzNTczkc9d"?>
<x:xmpmeta xmlns:x="adobe:ns:meta/" x:xmptk="Adobe XMP Core 5.6-c142 79.160924, 2017/07/13-01:06:39        ">
   <rdf:RDF xmlns:rdf="http://www.w3.org/1999/02/22-rdf-syntax-ns#">
      <rdf:Description rdf:about=""/>
   </rdf:RDF>
</x:xmpmeta>
                                                                                                    
                                                                                                    
                                                                                                    
                                                                                                    
                                                                                                    
                                                                                                    
                                                                                                    
                                                                                                    
                                                                                                    
                                                                                                    
                                                                                                    
                                                                                                    
                                                                                                    
                                                                                                    
                                                                                                    
                                                                                                    
                                                                                                    
                                                                                                    
                                                                                                    
                                                                                                    
                           
<?xpacket end="w"?></metadata>
<defs>
    <style>
      .cls-1 {
        fill: #95a5a6;
        fill-rule: evenodd;
      }
    </style>
  </defs>
  <path class="cls-1" d="M255,357.5a12,12,0,1,1,11.977-12A12,12,0,0,1,255,357.5Zm0.023-22.042A10.042,10.042,0,1,0,265.065,345.5,10.054,10.054,0,0,0,255.023,335.458Zm2,10.042a2,2,0,1,1-2-2A2,2,0,0,1,257.023,345.5Zm4,0c0,0.553-1.567,1-3.5,1s-2.5-.447-2.5-1,0.568-1,2.5-1S261.023,344.947,261.023,345.5Zm-5-3.5c0,2.485-.447,3.5-1,3.5s-1-1.015-1-3.5,0.447-4.5,1-4.5S256.023,339.515,256.023,342Z" transform="translate(-243.031 -333.5)"/>
</svg>
